<svg id="Layer_1" data-name="Layer 1" xmlns="http://www.w3.org/2000/svg" viewBox="0 0 512 512"><defs><style>.cls-1{fill:#6d4135;}.cls-2{fill:#ffd38d;}.cls-3{opacity:0.1;}</style></defs><title>stopwatch-flat</title><path class="cls-1" d="M341.33,21.33A21.4,21.4,0,0,1,320,42.67H277.33v64a21.33,21.33,0,0,1-42.67,0v-64H192A21.33,21.33,0,0,1,192,0H320A21.4,21.4,0,0,1,341.33,21.33Z"/><path class="cls-1" d="M361.91,159.9A21.33,21.33,0,0,1,344.7,126l40.53-55.47a21.33,21.33,0,1,1,34.45,25.17l-40.53,55.47A21.3,21.3,0,0,1,361.91,159.9Z"/><path class="cls-2" d="M469.33,298.67C469.33,416.32,373.65,512,256,512S42.67,416.32,42.67,298.67c0-110.4,84.27-201.49,192-212.27a213.92,213.92,0,0,1,42.67,0C385.07,97.17,469.33,188.27,469.33,298.67Z"/><path class="cls-1" d="M320,384a21.26,21.26,0,0,1-15.08-6.25l-64-64a21.34,21.34,0,0,1-6.25-15.08V213.33a21.33,21.33,0,0,1,42.67,0v76.5l57.75,57.75A21.33,21.33,0,0,1,320,384Z"/><g class="cls-3"><path d="M469.33,298.67C469.33,416.32,373.65,512,256,512V0h64a21.33,21.33,0,0,1,0,42.67H277.33V86.4C385.07,97.17,469.33,188.27,469.33,298.67Z"/></g></svg>